<?xml version="1.0" encoding="utf-8"?>
<!-- Generator: Adobe Illustrator 19.1.0, SVG Export Plug-In . SVG Version: 6.00 Build 0)  -->
<!DOCTYPE svg PUBLIC "-//W3C//DTD SVG 1.1//EN" "http://www.w3.org/Graphics/SVG/1.1/DTD/svg11.dtd">
<svg version="1.1" id="Layer_1" xmlns="http://www.w3.org/2000/svg" xmlns:xlink="http://www.w3.org/1999/xlink" x="0px" y="0px"
	 width="108.1px" height="192.8px" viewBox="0 0 108.1 192.8" enable-background="new 0 0 108.1 192.8" xml:space="preserve">
<g>
	<g>
		<path fill="#FCC070" d="M52.9,70l-37.3,0l26.2,105.6c0,0,4.6,18.1,11.2,17.1c6.6,0.9,11.2-17.2,11.2-17.2L90.2,70L52.9,70z"/>
	</g>
	<g>
		<path fill="#F4D989" d="M83.2,82.4L70.7,70l-5.4,0L52.9,82.4L40.5,70l-5.4,0L22.6,82.5l-5.2-5.2l1.6,6.4l1.3,1.2l-0.8,0.8l1,3.8
			l2.2-2.2L35.4,100l-9.9,9.9l1,3.8l11.3-11.3l12.8,12.7l-12.7,12.8l-10.4-10.4l1.6,6.4l6.4,6.4l-3.9,3.9l1,3.8l5.3-5.3l12.8,12.7
			l-12.7,12.7l-0.5-0.5l1.6,6.4l11.7,11.6l-6.6,6.6c0.4,1.1,0.9,2.2,1.5,3.3l7.5-7.6l7.6,7.5c0.5-1.1,1-2.2,1.4-3.3l-6.6-6.6L67,164
			l1.6-6.4l-0.5,0.5l-12.7-12.7l12.7-12.8l5.3,5.3l0.9-3.8l-3.9-3.9l6.4-6.4l1.6-6.4l-10.4,10.4l-12.8-12.7l12.7-12.8l11.3,11.3
			l0.9-3.8l-9.9-9.9l12.7-12.7l2.2,2.2l0.9-3.8l-0.8-0.8l1.3-1.3l1.6-6.4L83.2,82.4z M25,84.9l12.7-12.8l12.7,12.7L37.8,97.6
			L25,84.9z M65.7,160.6L53,173.3l-12.7-12.7L53,147.8L65.7,160.6z M65.7,130.3L53,143l-12.8-12.7l12.7-12.8L65.7,130.3z
			 M52.9,112.7L40.2,100l12.7-12.8L65.7,100L52.9,112.7z M68.1,97.6L55.3,84.8L68,72.1l12.8,12.7L68.1,97.6z"/>
	</g>
</g>
<path fill="#FF7BAC" d="M92.7,31C88.2,13.2,72,0,52.8,0C33,0,16.4,14,12.5,32.6C5,37.5,0,45.8,0,55.4c0,14.9,12.1,27,27,27
	c4.1,0,8-0.9,11.4-2.6c4.5,1.7,9.3,2.6,14.3,2.6c5.6,0,10.9-1.1,15.7-3.1c3.8,2,8,3.1,12.6,3.1c14.9,0,27-12.1,27-27
	C108.1,44.6,101.8,35.4,92.7,31z"/>
<ellipse transform="matrix(0.7367 0.6763 -0.6763 0.7367 32.6904 -43.1457)" fill="#FFA1AC" cx="71.7" cy="20.4" rx="10.5" ry="8"/>
<path fill="#FFA1AC" d="M11,45.1c0,0-9.2,23.9,16.8,28.9C27.8,74,12.3,66.1,11,45.1z"/>
<path fill="#FFA1AC" d="M93.1,71.1c0,0,16.7-7.4,6.1-23.1C99.3,48,103.1,59.9,93.1,71.1z"/>
<path fill="#FFA1AC" d="M24.6,21.3c0,0,4.5-14.3,26.3-16.5C50.9,4.8,36.4,11.2,24.6,21.3z"/>
</svg>
