<?xml version="1.0" encoding="utf-8"?>
<!-- Generator: Adobe Illustrator 19.1.0, SVG Export Plug-In . SVG Version: 6.00 Build 0)  -->
<!DOCTYPE svg PUBLIC "-//W3C//DTD SVG 1.1//EN" "http://www.w3.org/Graphics/SVG/1.1/DTD/svg11.dtd">
<svg version="1.1" id="Layer_1" xmlns="http://www.w3.org/2000/svg" xmlns:xlink="http://www.w3.org/1999/xlink" x="0px" y="0px"
	 width="31.4px" height="69.4px" viewBox="0 0 31.4 69.4" enable-background="new 0 0 31.4 69.4" xml:space="preserve">
<g id="icon_1_">
	<g>
		<path fill="#F0F2F5" d="M27.8,66.9V65h-5.2c-2-0.3-4.3-0.4-6.9-0.4c-2.6,0-4.9,0.2-6.9,0.4H3.7c0,0.1-0.1,0.1-0.1,0.2V67l0,0
			c0.1,1.3,5.5,2.4,12.1,2.4c6.7,0,12.1-1.1,12.1-2.4C27.8,67,27.8,66.9,27.8,66.9z"/>
		<path fill="#F6F8FB" d="M28,34.8c5.1-16,2.9-29.5,2.9-29.5L16.1,4.5v0l-0.4,0l-0.4,0v0L0.5,5.2c0,0-2.2,13.5,2.9,29.5
			C8.3,50.3,8.3,56.7,4,64.6c-0.3,0.2-0.4,0.4-0.4,0.6c0,1.3,5.4,2.4,12.1,2.4c6.7,0,12.1-1.1,12.1-2.4c0-0.2-0.1-0.4-0.4-0.6
			C23.1,56.7,23,50.3,28,34.8z"/>
		<path fill="#FAFBFD" d="M2.3,23.5C2.3,23.6,2.3,23.6,2.3,23.5C1,17.4,1.2,5.3,1.2,5.3L5.7,5c0,0.1,0.1,0.2,0.1,0.3L5.1,5.3
			c0,0-0.2,12.1,1.1,18.2c0,0,0,0-0.1,0c0,0.3,0.1,0.6,0.1,0.9C9,24.8,12.2,25,15.7,25c5.9,0,11.1-0.6,14.1-1.5
			c1.3-6.2,1.1-18.2,1.1-18.2L16.3,4.2V4.1l-0.6,0l-0.6,0v0.1L0.5,5.3c0,0-0.2,12.1,1.1,18.2c0.2,0.1,0.4,0.1,0.7,0.2
			C2.3,23.7,2.3,23.6,2.3,23.5z"/>
		<path fill="#F6F8FB" d="M2.4,24.5c0-0.3-0.1-0.5-0.1-0.8c-0.2-0.1-0.5-0.1-0.7-0.2c0,0,0,0,0,0C1.6,23.9,1.9,24.2,2.4,24.5z"/>
		<path fill="#F6F8FB" d="M6.3,24.5c0,0.4,0.1,0.8,0.2,1.2c2.5,0.4,5.7,0.7,9.2,0.7c7.8,0,14.1-1.3,14.1-2.8h0c0,0,0,0,0-0.1
			c-3.1,0.9-8.3,1.5-14.1,1.5C12.2,25,9,24.8,6.3,24.5z"/>
		<path fill="#FFCE54" d="M29.8,23.5C29.8,23.6,29.8,23.6,29.8,23.5L29.8,23.5c0,1.6-6.3,2.9-14.1,2.9c-3.5,0-6.8-0.3-9.2-0.7
			c-1.8-0.3-3.3-0.7-4.1-1.2c0.5,3.7,1.2,7.8,2.6,12.1c4.3,13.6,3.7,19.7,0.3,26.4c0.9,0.3,3,0.5,4.4,0.7c1.7,0.2,3.8,0.3,5.9,0.3
			c4.4,0,8.3-0.5,10.1-1.3c-3.2-6.7-3-12.7,1.3-26.2C28.6,31.9,29.4,27.5,29.8,23.5z"/>
		<path fill="#F6F8FB" d="M2.3,23.6C2.3,23.6,2.3,23.6,2.3,23.6c-0.1,0,0,0.7,0,0.9c0.8,0.5,2.2,0.9,4.1,1.2
			c-0.1-0.4-0.1-0.8-0.2-1.2c0-0.3-0.1-0.6-0.1-0.9c0,0,0,0,0.1,0C4.9,17.4,5.1,5.3,5.1,5.3l0.7-0.1c0-0.1-0.1-0.2-0.1-0.3L1.2,5.3"
			/>
		<path fill="#FFCE54" d="M26.5,64.3c-0.3-0.5-0.5-1-0.7-1.4c-1.8,0.7-5.7,1.3-10.1,1.3c-2.2,0-4.2-0.1-5.9-0.3
			c-1.4-0.2-2.7-0.4-3.6-0.7C6,63,5.7,62.9,5.6,62.9c-0.2,0.5-0.5,1-0.7,1.4c-0.3,0.2-0.4,0.4-0.4,0.6c0,1.2,5,2.2,11.3,2.2
			c6.2,0,11.3-1,11.3-2.2C26.9,64.7,26.8,64.5,26.5,64.3z"/>
		<ellipse fill="#EBEEF1" cx="15.7" cy="5.3" rx="15.2" ry="3"/>
		<path fill="#FBFCFD" d="M29.8,5c0,1.6-6.3,2.8-14.1,2.8C7.8,7.8,1.5,6.5,1.5,5c0-1.6,6-5,13.8-5C23.1,0,29.8,3.4,29.8,5z"/>
		<g>
			<path opacity="0.7" fill="#F0F2F5" d="M8.8,5c0-1.3,4.2-3.9,10.2-4.7C17.8,0.1,16.5,0,15.3,0C7.4,0,1.5,3.4,1.5,5
				c0,1.6,6.3,2.8,14.1,2.8c1.3,0,2.5,0,3.7-0.1C13.2,7.4,8.8,6.3,8.8,5z"/>
		</g>
	</g>
</g>
</svg>
